<svg xmlns="http://www.w3.org/2000/svg" viewBox="0 0 512 512" width="512" height="512"><path d="M312 471.7L67.7 225.8C19 176.8 19 96.6 67.7 47.6c58.4-58.8 138.1-38.2 176 0L459 264.3l-14.5 14.6L230.2 62.2c-29.6-31.4-97.8-49.5-149.1 0-40.4 40.6-40.4 108.4 0 149l244.3 245.9c31.1 31.3 80.8 31.3 110.8 0 31.1-31.3 31.1-81.3 0-111.5l-208-210.5c-19.7-19.8-52.8-19.8-72.5 0s-19.7 53.1 0 72.9l181.2 182.4-14.5 14.6-181.2-182.3c-28-28.1-28-74 0-102.1s73.5-28.1 101.5 0L451.8 331c51.8 52.1 24.3 117.5 0 141.7-32.7 34.4-100 40.8-139.8-1z" fill="#00a6c5"/></svg>