<?xml version="1.0" encoding="utf-8"?>
<!-- Generator: Adobe Illustrator 21.0.1, SVG Export Plug-In . SVG Version: 6.00 Build 0)  -->
<svg version="1.1" id="Слой_1" xmlns="http://www.w3.org/2000/svg" xmlns:xlink="http://www.w3.org/1999/xlink" x="0px" y="0px"
	 viewBox="0 0 500 500" style="enable-background:new 0 0 500 500;" xml:space="preserve">
<style type="text/css">
	.st0{fill:none;stroke:#4A9FB7;stroke-width:10;stroke-miterlimit:10;}
	.st1{fill:#4A9FB7;}
</style>
<g>
	<circle class="st0" cx="250.1" cy="249.9" r="246.2"/>
</g>
<g>
	<path id="Facebook" class="st1" d="M224.7,192.2c0,4.6,0,25.4,0,25.4h-18.6v31.1h18.6v92.5H263v-92.5h25.7c0,0,2.4-14.9,3.6-31.3
		c-3.3,0-29.2,0-29.2,0s0-18.1,0-21.3s4.1-7.5,8.3-7.5c4.1,0,12.8,0,20.9,0c0-4.3,0-18.9,0-32.4c-10.8,0-23,0-28.4,0
		C223.8,156.4,224.7,187.6,224.7,192.2z"/>
</g>
</svg>
