<?xml version="1.0" encoding="utf-8"?>
<!-- Generator: Adobe Illustrator 21.0.1, SVG Export Plug-In . SVG Version: 6.00 Build 0)  -->
<svg version="1.1" id="Слой_1" xmlns="http://www.w3.org/2000/svg" xmlns:xlink="http://www.w3.org/1999/xlink" x="0px" y="0px"
	 viewBox="0 0 500 500" style="enable-background:new 0 0 500 500;" xml:space="preserve">
<style type="text/css">
	.st0{fill:none;stroke:#4D99AE;stroke-width:10;stroke-miterlimit:10;}
	.st1{fill:#4A9FB7;}
</style>
<g>
	<circle class="st0" cx="250.1" cy="249.9" r="246.2"/>
</g>
<path class="st1" d="M218.4,267.9h45.2c-7.9,22.4-29.4,38.5-54.5,38.3c-30.5-0.3-55.7-24.6-56.9-55.1c-1.3-32.7,24.9-59.7,57.3-59.7
	c14.8,0,28.3,5.6,38.5,14.9c2.4,2.2,6.1,2.2,8.5,0l16.6-15.6c2.6-2.5,2.6-6.6,0-9c-16.1-15.3-37.8-24.9-61.8-25.3
	c-51-1-94,40.8-94.3,91.8c-0.4,51.3,41.2,93.1,92.5,93.1c49.3,0,89.6-38.6,92.4-87.3c0.1-0.6,0.1-21.2,0.1-21.2h-83.6
	c-3.4,0-6.2,2.8-6.2,6.2v22.7C212.2,265.1,215,267.9,218.4,267.9z"/>
<path class="st1" d="M378.4,234.8v-22.2c0-3-2.5-5.4-5.4-5.4h-18.7c-3,0-5.4,2.5-5.4,5.4v22.2h-22.2c-3,0-5.4,2.5-5.4,5.4v18.7
	c0,3,2.5,5.4,5.4,5.4h22.2v22.2c0,3,2.5,5.4,5.4,5.4H373c3,0,5.4-2.5,5.4-5.4v-22.2h22.2c3,0,5.4-2.5,5.4-5.4v-18.7
	c0-3-2.5-5.4-5.4-5.4H378.4L378.4,234.8z"/>
</svg>
