<?xml version="1.0" encoding="utf-8"?>
<!-- Generator: Adobe Illustrator 21.0.1, SVG Export Plug-In . SVG Version: 6.00 Build 0)  -->
<svg version="1.1" id="Слой_1" xmlns="http://www.w3.org/2000/svg" xmlns:xlink="http://www.w3.org/1999/xlink" x="0px" y="0px"
	 viewBox="0 0 500 500" style="enable-background:new 0 0 500 500;" xml:space="preserve">
<style type="text/css">
	.st0{fill:url(#SVGID_1_);}
	.st1{fill:url(#SVGID_2_);}
	.st2{fill:url(#SVGID_3_);}
	.st3{fill:none;stroke:url(#SVGID_4_);stroke-width:10;stroke-miterlimit:10;}
</style>
<g>
	
		<linearGradient id="SVGID_1_" gradientUnits="userSpaceOnUse" x1="250.0502" y1="525.1504" x2="250.0502" y2="708.1632" gradientTransform="matrix(1 0 0 -1 0 866)">
		<stop  offset="0" style="stop-color:#DA9A47"/>
		<stop  offset="0.3" style="stop-color:#BE5151"/>
		<stop  offset="0.6" style="stop-color:#B5567D"/>
		<stop  offset="1" style="stop-color:#7259A0"/>
	</linearGradient>
	<path class="st0" d="M287.5,156.4h-74.8c-30.4,0-55.1,24.8-55.1,55.1v74.7c0,30.4,24.7,55.1,55.1,55.1h74.7
		c30.4,0,55.1-24.7,55.1-55.1v-74.7C342.6,181.1,317.9,156.4,287.5,156.4z M324,286.2c0,20.2-16.3,36.5-36.5,36.5h-74.7
		c-20.2,0-36.5-16.3-36.5-36.5v-74.7c0-20.2,16.3-36.5,36.5-36.5h74.7c20.2,0,36.5,16.3,36.5,36.5V286.2L324,286.2z"/>
	
		<linearGradient id="SVGID_2_" gradientUnits="userSpaceOnUse" x1="250.1" y1="525.1504" x2="250.1" y2="708.1632" gradientTransform="matrix(1 0 0 -1 0 866)">
		<stop  offset="0" style="stop-color:#DA9A47"/>
		<stop  offset="0.3" style="stop-color:#BE5151"/>
		<stop  offset="0.6" style="stop-color:#B5567D"/>
		<stop  offset="1" style="stop-color:#7259A0"/>
	</linearGradient>
	<path class="st1" d="M250.1,201.1c-26.4,0-47.9,21.5-47.9,47.9s21.5,47.9,47.9,47.9S298,275.4,298,249S276.5,201.1,250.1,201.1z
		 M250.1,278.1c-16.2,0-29.2-13.1-29.2-29.2s13.1-29.2,29.2-29.2s29.2,13.1,29.2,29.2C279.4,265,266.3,278.1,250.1,278.1z"/>
	
		<linearGradient id="SVGID_3_" gradientUnits="userSpaceOnUse" x1="298" y1="525.1504" x2="298" y2="708.1632" gradientTransform="matrix(1 0 0 -1 0 866)">
		<stop  offset="0" style="stop-color:#DA9A47"/>
		<stop  offset="0.3" style="stop-color:#BE5151"/>
		<stop  offset="0.6" style="stop-color:#B5567D"/>
		<stop  offset="1" style="stop-color:#7259A0"/>
	</linearGradient>
	<circle class="st2" cx="298" cy="201.4" r="11.5"/>
</g>
<linearGradient id="SVGID_4_" gradientUnits="userSpaceOnUse" x1="-0.8" y1="656.98" x2="500.4" y2="656.98" gradientTransform="matrix(1 0 0 -1 0 907.28)">
	<stop  offset="0" style="stop-color:#DA9A47"/>
	<stop  offset="0.3" style="stop-color:#BE5151"/>
	<stop  offset="0.6" style="stop-color:#B5567D"/>
	<stop  offset="1" style="stop-color:#7259A0"/>
</linearGradient>
<circle class="st3" cx="249.8" cy="250.3" r="245.6"/>
</svg>
