<?xml version="1.0" encoding="utf-8"?>
<!-- Generator: Adobe Illustrator 21.0.1, SVG Export Plug-In . SVG Version: 6.00 Build 0)  -->
<svg version="1.1" id="Слой_1" xmlns="http://www.w3.org/2000/svg" xmlns:xlink="http://www.w3.org/1999/xlink" x="0px" y="0px"
	 viewBox="0 0 500 500" style="enable-background:new 0 0 500 500;" xml:space="preserve">
<style type="text/css">
	.st0{fill:none;stroke:#4D99AE;stroke-width:10;stroke-miterlimit:10;}
	.st1{fill:#4A9FB7;}
</style>
<g>
	<circle class="st0" cx="250.1" cy="249.9" r="246.2"/>
</g>
<g>
	<path class="st1" d="M287.4,156.4h-74.8c-30.4,0-55.1,24.8-55.1,55.1v74.7c0,30.4,24.7,55.1,55.1,55.1h74.7
		c30.4,0,55.1-24.7,55.1-55.1v-74.7C342.5,181.1,317.8,156.4,287.4,156.4z M323.9,286.2c0,20.2-16.3,36.5-36.5,36.5h-74.7
		c-20.2,0-36.5-16.3-36.5-36.5v-74.7c0-20.2,16.3-36.5,36.5-36.5h74.7c20.2,0,36.5,16.3,36.5,36.5V286.2L323.9,286.2z"/>
	<path class="st1" d="M250,201.1c-26.4,0-47.9,21.5-47.9,47.9s21.5,47.9,47.9,47.9s47.9-21.5,47.9-47.9S276.4,201.1,250,201.1z
		 M250,278.1c-16.2,0-29.2-13.1-29.2-29.2s13.1-29.2,29.2-29.2s29.2,13.1,29.2,29.2S266.2,278.1,250,278.1z"/>
	<circle class="st1" cx="297.9" cy="201.4" r="11.5"/>
</g>
</svg>
