<svg id="Слой_1" xmlns="http://www.w3.org/2000/svg" viewBox="0 0 1639 824"><style>.st0{fill:#fff}.st1{fill:#1e88a4}.st2{fill:#ed1d24}</style><path class="st0" d="M9.9 824.6H1629c6.7 0 6.7 0 6.7-6.9V427.5c0-7.5 0-7.5-7.7-7.5H695.6c-8 0-8 0-8 8.2 0 72.3-.1 144.7.1 217 0 5.3-1.7 7.5-6.8 8.8-24.1 5.9-48.1 12.1-72.1 18.2-77.2 19.6-154.5 39.2-231.7 58.9-104.2 26.5-208.3 53-312.4 79.5-18 4.5-35.9 9.1-54.8 14zM942.6 208c-19.3 0-38.1.1-56.8-.1-4.3-.1-6.2 1-7.4 5.5-7.6 27.3-15.6 54.4-23.5 81.6-.5 1.6-1.2 3.1-2.3 6-1.1-3-1.7-4.5-2.2-6.1-8.3-27.2-16.6-54.4-24.7-81.7-1.2-4.1-3.1-5.3-7.2-5.2-14.7.2-29.5.1-44.3.1h-11V353H801c-1.2-37.2-2.5-74-3.7-110.7.5-.1.9-.2 1.4-.3.7 1.9 1.5 3.8 2.2 5.7 11.2 33.6 22.5 67.1 33.5 100.8 1.3 3.9 3 5.1 7 4.9 7.6-.3 15.3-.3 22.9 0 3.9.2 5.8-1 7-4.9 11.1-34.2 22.4-68.2 33.7-102.3.5-1.5 1.3-3 1.9-4.4.5.1.9.3 1.4.4-1.3 36.8-2.6 73.7-3.9 110.8h38.1c.1-48.4.1-96.4.1-145zm129.9 178.5h36v-66.4h-11.7V208.3H984.9v5.8c0 19.1.2 38.2-.2 57.2-.3 14.7-2.6 29-9.7 42.2-2.6 4.8-5.5 8.1-11.5 6.9-1.3-.3-2.8.2-4.1.3v65.9h36.3v-33h76.8v32.9zm157-.1h36.1v-66c-4-.3-7.7-.5-11.9-.8V208.4h-38.3v111.3c-2.1.1-3.9.4-5.6.4-13.3 0-26.5-.2-39.8.1-4.8.1-6.1-1.4-6.1-6.1.2-33.2.1-66.3.1-99.5 0-2.1-.2-4.1-.4-6.3h-37.3v145h6.9c30.2 0 60.3.1 90.5-.1 4.4 0 6.2 1 5.9 5.7-.4 9.1-.1 18.2-.1 27.5zM1637.1 827H6.1v-34.8c1.8-.3 3.6-.5 5.4-.9 70-17.8 140.1-35.6 210.1-53.4 1.7-.4 3.4-.7 5.6-1.1v13.9c2.1-.4 3.7-.7 5.2-1.1C348.6 720 464.8 690.4 581 660.9c27.7-7.1 55.5-14.1 83.1-21.2 1.7-.4 4.1-2.1 4.3-3.5.6-3.5.2-7.2.2-11.7-73.9 18.8-147 37.4-221 56.2v-14.2c-2 .3-3.3.5-4.6.8-126.5 32.2-253.1 64.5-379.6 96.7-19.1 4.8-38.2 9.5-57.2 14.2v-29.9c73.5-18.7 147-37.3 221.2-56.2v14.4c2.7-.6 4.8-1 6.9-1.6l361.5-92.1c22.8-5.8 45.5-11.5 68.3-17.4 1.7-.4 4.3-1.7 4.4-2.9.6-3.9.2-8 .2-12.4-74 18.8-147.1 37.4-221 56.3V622c-1.3.3-1.9.3-2.6.5-104.3 26.6-208.6 53.1-312.9 79.7-42 10.7-83.9 21.4-125.9 32.2v-29.9c.9-.4 1.8-.8 2.8-1.1 63.8-16.3 127.6-32.5 191.3-48.7 8.7-2.2 17.5-4.4 27-6.7v14.3c2.4-.5 4.1-.9 5.9-1.4C343.1 633 453.1 605 563 577c33.7-8.6 67.3-17.1 100.9-25.8 1.7-.4 4.2-2 4.5-3.3.6-3.6.2-7.4.2-11.8-74 18.8-147.1 37.4-221 56.2V578c-2.2.5-3.8.8-5.4 1.2-132.5 33.7-265.1 67.4-397.6 101.1-12.8 3.3-25.7 6.3-38.5 9.4v-29.9c.7-.1 1.4-.1 2-.3 64.3-16.4 128.5-32.8 192.8-49.1 8.6-2.2 17.1-4.3 26.5-6.7v14.4c2.9-.7 5.2-1.2 7.4-1.7 124.5-31.7 249-63.4 373.6-95.1 18.6-4.7 37.2-9.4 55.8-14.3 1.7-.4 4.1-2.1 4.3-3.5.6-3.6.2-7.4.2-11.7-73.9 18.8-147.1 37.4-221 56.2v-14.6C300 571 153.1 608.4 6.1 645.8v-29.9c1.1-.4 2.2-.8 3.3-1.1 64.9-16.5 129.8-33.1 194.7-49.6 7.5-1.9 15-3.7 23.1-5.7v14.3c2.3-.5 4.1-.9 5.8-1.3 119.4-30.4 238.8-60.8 358.1-91.2 24.4-6.2 48.7-12.4 73-18.8 1.7-.4 3.9-2.1 4.2-3.6.6-3.5.2-7.2.2-11.5-73.9 18.8-147 37.4-220.9 56.2v-14.3c-2.6.5-4.6.9-6.5 1.3-134.8 34.3-269.5 68.7-404.3 103-10.2 2.6-20.5 4.9-30.8 7.3V586c48.4-12.3 96.8-24.7 145.2-37 169.9-43.2 339.7-86.5 509.6-129.8 9.1-2.3 7.6-.1 7.7-9.9.1-6.7 0-13.4 0-20.4-2.1.4-3.3.6-4.4.9-151 38.4-301.9 76.8-452.9 115.3C143 522.5 74.6 539.9 6.1 557.2v-15.9c1.5-.2 3-.3 4.4-.6 31.3-7.9 62.5-15.9 93.8-23.8l447.6-114c37.5-9.6 75-19.1 112.5-28.8 1.6-.4 4-2 4.1-3.1.3-8.6.2-17.2.2-26.2-2.1.4-3.7.6-5.3 1-210.3 53.5-420.5 107.1-630.8 160.6-8.8 2.2-17.7 4-26.5 6v-14.9c24.4-6.2 48.8-12.3 73.1-18.5 159.6-40.6 319.2-81.3 478.8-121.9 35.4-9 70.8-18 106.2-27.1 1.5-.4 4-1.7 4-2.7.3-8.8.2-17.7.2-26.9-1.7.3-2.5.4-3.3.6-26.8 6.8-53.5 13.6-80.3 20.4-166.2 42.3-332.4 84.7-498.6 127-26.8 6.8-53.5 13.5-80.3 20.2v-14.9c1.1-.4 2.2-.9 3.3-1.2 31.9-8.1 63.8-16.3 95.6-24.4 157-40 314-80 471-119.9 29.2-7.4 58.3-14.8 87.5-22.3 1.9-.5 4.8-2.3 4.8-3.6.4-8.5.2-17.1.2-26.1-2.1.4-3.6.6-5 1-31.2 7.9-62.5 15.9-93.7 23.8C411.3 321.3 253 361.6 94.7 402c-29.6 7.6-59.2 15.2-88.9 22.8v-15.9c27.3-6.9 54.6-13.7 81.8-20.7 158.2-40.3 316.4-80.5 474.5-120.8 34-8.6 68-17.3 101.9-26 1.5-.4 4-1.7 4-2.7.3-8.8.2-17.7.2-26.8-1.5.3-2.1.4-2.8.5-35.9 9.1-71.8 18.3-107.7 27.4-166.2 42.3-332.4 84.7-498.6 127-17.8 4.5-35.6 8.8-53.4 13.2v-29.9c73.5-18.7 147-37.3 221.2-56.2v14.4c2.7-.6 4.8-1 6.9-1.6l361.5-92.1c22.8-5.8 45.5-11.5 68.3-17.4 1.7-.4 4.3-1.7 4.4-2.9.6-3.9.2-8 .2-12.4-74 18.8-147.1 37.4-221 56.3v-14.4c-1.3.3-1.9.4-2.6.5-102.9 26.2-205.7 52.3-308.6 78.5C92.9 314 49.5 325.2 6.1 336.3v-29.9c.9-.4 1.8-.8 2.8-1.1 63.8-16.3 127.6-32.5 191.3-48.7 8.7-2.2 17.5-4.4 27-6.7v14.2c2.2-.5 3.8-.7 5.4-1.1 111.5-28.4 223.1-56.8 334.6-85.2 32.4-8.2 64.7-16.5 97.1-24.9 1.6-.4 3.8-1.9 4-3.2.5-3.7.2-7.4.2-11.8-74 18.8-147.1 37.4-221 56.2v-14.3c-2.2.5-3.8.8-5.4 1.2C309.6 214.7 177 248.4 44.5 282.1c-12.8 3.3-25.7 6.3-38.5 9.4v-29.9c.8-.1 1.7-.2 2.5-.4 64.4-16.4 128.8-32.9 193.2-49.3 8.2-2.1 16.5-4.1 25.5-6.3V220c2.9-.7 5.2-1.2 7.4-1.7 124.4-31.7 248.7-63.3 373.1-95 18.7-4.8 37.5-9.4 56.2-14.3 1.7-.4 4.1-2.1 4.3-3.5.6-3.6.2-7.4.2-11.7-74 18.8-147.1 37.4-221 56.2v-14.6C300 172.9 153.1 210.3 6.1 247.7v-29.9c1-.3 1.9-.8 2.9-1 70.3-17.9 140.7-35.8 211-53.7 2.2-.6 4.4-.9 7.3-1.5v14.1c2.4-.6 4.1-.9 5.9-1.4 102.4-26.1 204.8-52.1 307.2-78.2 41.3-10.5 82.7-21.1 124-31.7 1.6-.4 3.9-1.9 4.1-3.1.5-3.7.2-7.5.2-11.9-73.9 18.8-147 37.4-221 56.2V91.3c-2 .4-3.3.6-4.5.9C307.8 126.7 172.4 161.1 37 195.6c-10.2 2.6-20.5 4.9-30.8 7.3V173c1.1-.2 2.3-.3 3.4-.5 61.5-15.7 123-31.4 184.5-47 10.8-2.8 21.7-5.4 33.3-8.4v14.3c2.1-.5 3.6-.7 5-1.1 141.6-36 283.2-72 424.8-108.1 12.2-3.1 12.2-3.2 11.4-16.4"/><path class="st1" d="M9.9 824.6c19-4.9 36.9-9.4 54.8-14 104.1-26.5 208.3-53 312.4-79.5 77.2-19.6 154.4-39.2 231.7-58.9 24-6.1 48-12.3 72.1-18.2 5.1-1.2 6.8-3.4 6.8-8.8-.2-72.3-.1-144.7-.1-217 0-8.2 0-8.2 8-8.2H1628c7.7 0 7.7 0 7.7 7.5v390.2c0 6.9 0 6.9-6.7 6.9H9.9zm992.3-247.7c0 32.3-.3 64.7.1 97 .1 11.7 1.2 23.5 3.1 35.1 4.1 25.5 18.3 43.1 42.8 52.2 19 7.1 38.8 9.6 58.9 10.4 16 .6 32.1.3 48.1.1 18.9-.2 37.6-2.7 55.8-8.1 26.6-8 44.6-24.6 50.2-52.4 2.7-13.4 4.2-27.2 4.2-40.9.4-66.5.2-133 .2-199.6 0-7 0-7-7.3-7h-67.1c-8.5 0-8.5 0-8.5 8.5v172.2c0 9.1 0 18.3-.5 27.4-.7 14.3-7.8 23.2-21.7 25.7-17.9 3.3-35.9 3.1-53.8-.1-11.9-2.1-18.4-9.8-20.7-21.3-.8-4-1.2-8.2-1.2-12.3-.1-64.7-.1-129.4 0-194.1 0-4.6-1.4-6.1-5.9-6-23.5.1-47.1.2-70.6 0-4.7 0-6.1 1.5-6.1 6.3.1 35.6 0 71.2 0 106.9zm585.6-112.3c-2.4-.4-3.8-.8-5.2-.8-28.2 0-56.4 0-84.6-.1-3.4 0-5.3 1.3-6.8 4.5-15.7 32-31.5 63.9-47.3 95.9l-5.1 10.2c-1.1-2-1.9-3.5-2.6-4.9-16.4-33.5-32.9-66.9-49.2-100.5-1.8-3.6-4-5.1-8-5.1-28.2.1-56.4 0-84.5.1-1.8 0-3.7.5-6 .8.9 1.9 1.4 3.1 2.1 4.2 26.7 46.2 53.4 92.4 80.3 138.5 2.1 3.6 2.6 6.4.1 9.9s-4.4 7.4-6.6 11.1c-26.1 44.8-52.2 89.7-78.3 134.5-1.1 1.9-1.9 4-3.3 6.9h6.4c28.2 0 56.4-.1 84.5.1 4.3 0 6.4-1.4 8.3-5.2 15.5-30.8 31.3-61.5 47-92.1 3.1-6.1 6.4-12.1 9.9-18.7 1 1.9 1.6 3.1 2.2 4.2 18.3 35.5 36.6 71 54.8 106.6 1.9 3.7 4 5.3 8.3 5.2 28-.2 56-.1 84-.1 1.7 0 3.5-.2 6-.3-1.5-2.9-2.4-5.1-3.6-7.2-28.1-48.7-56.2-97.3-84.3-145.9-1.5-2.5-1.9-4.5-.3-7.2 25.2-44.2 50.3-88.4 75.5-132.7 1.9-3.9 3.9-7.6 6.3-11.9zm-825.2 152c0 48.9 0 97.8-.1 146.8 0 4.4.8 6.5 6 6.4 66.1-.2 132.2-.2 198.3 0 4.5 0 5.6-1.4 5.5-5.7-.2-19.9-.1-39.8-.1-59.7 0-7 0-7-7.2-7H853.2c-7.6 0-7.6 0-7.6-7.6V470.9c0-7-.2-7.2-7.3-7.2h-68.6c-7.1 0-7.2.2-7.3 7.2.2 48.6.2 97.2.2 145.7z"/><path class="st2" d="M942.6 208v145h-38.1c1.3-37.2 2.6-74 3.9-110.8-.5-.1-.9-.3-1.4-.4-.6 1.5-1.4 2.9-1.9 4.4-11.3 34.1-22.6 68.2-33.7 102.3-1.3 3.9-3.1 5.1-7 4.9-7.6-.3-15.3-.3-22.9 0-3.9.2-5.7-1-7-4.9-11-33.7-22.3-67.2-33.5-100.8-.6-1.9-1.4-3.8-2.2-5.7-.5.1-.9.2-1.4.3 1.2 36.8 2.5 73.6 3.7 110.7h-37.8V208.1h11c14.8 0 29.5.1 44.3-.1 4.1-.1 5.9 1 7.2 5.2 8 27.3 16.4 54.5 24.7 81.7.5 1.5 1.1 3 2.2 6.1 1.1-2.9 1.8-4.4 2.3-6 7.9-27.2 15.9-54.3 23.5-81.6 1.2-4.4 3.1-5.5 7.4-5.5 18.6.2 37.3.1 56.7.1zm129.9 178.5v-32.8h-76.8v33h-36.3v-65.9c1.3-.1 2.8-.6 4.1-.3 6 1.2 8.9-2.1 11.5-6.9 7.2-13.2 9.4-27.6 9.7-42.2.4-19.1.2-38.2.2-57.2v-5.8h111.9v111.8h11.7v66.4c-11.6-.1-23.4-.1-36-.1zm-63.2-66.1h46c2.8 0 3.2-1.5 3.2-3.8 0-24-.1-48 0-72 0-3.1-1.2-4-4.1-3.9-9.6.1-19.2 0-28.8.1-1.3 0-2.5.3-4.2.5-.1 26.8 2.2 53.7-12.1 79.1zm220.2 66c0-9.3-.3-18.4.1-27.5.2-4.8-1.6-5.8-5.9-5.7-30.2.2-60.3.1-90.5.1h-6.9v-145h37.3c.1 2.1.4 4.2.4 6.3 0 33.2.1 66.3-.1 99.5 0 4.8 1.3 6.3 6.1 6.1 13.2-.3 26.5-.1 39.8-.1 1.8 0 3.5-.2 5.6-.4V208.4h38.3v111.2c4.2.3 7.9.5 11.9.8v66h-36.1z"/><path class="st0" d="M1002.2 576.9c0-35.7.1-71.3-.1-107 0-4.8 1.4-6.3 6.1-6.3 23.5.2 47.1.2 70.6 0 4.5 0 5.9 1.4 5.9 6-.1 64.7-.1 129.4 0 194.1 0 4.1.4 8.3 1.2 12.3 2.3 11.5 8.8 19.2 20.7 21.3 17.9 3.2 36 3.4 53.8.1 13.9-2.6 21-11.4 21.7-25.7.5-9.1.4-18.2.5-27.4V472.1c0-8.4 0-8.5 8.5-8.5h67.1c7.3 0 7.3 0 7.3 7 0 66.5.2 133-.2 199.6-.1 13.7-1.6 27.5-4.2 40.9-5.6 27.7-23.6 44.4-50.2 52.4-18.2 5.5-36.8 7.9-55.8 8.1-16 .2-32.1.5-48.1-.1-20-.7-39.8-3.3-58.9-10.4-24.5-9.1-38.6-26.7-42.8-52.2-1.9-11.6-2.9-23.4-3.1-35.1-.3-32.2 0-64.6 0-96.9zm585.6-112.3c-2.4 4.3-4.4 8.1-6.5 11.7-25.1 44.2-50.2 88.5-75.5 132.7-1.6 2.8-1.2 4.7.3 7.2 28.2 48.6 56.2 97.3 84.3 145.9 1.2 2.1 2.2 4.3 3.6 7.2-2.6.2-4.3.3-6 .3-28 0-56-.1-84 .1-4.3 0-6.5-1.5-8.3-5.2-18.2-35.6-36.5-71.1-54.8-106.6-.6-1.2-1.2-2.3-2.2-4.2-3.5 6.6-6.7 12.6-9.9 18.7-15.7 30.7-31.4 61.4-47 92.1-1.9 3.8-4 5.2-8.3 5.2-28.2-.2-56.3-.1-84.5-.1h-6.4c1.4-2.9 2.2-5 3.3-6.9 26.1-44.8 52.2-89.7 78.3-134.5 2.2-3.7 4.1-7.6 6.6-11.1 2.6-3.5 2-6.4-.1-9.9-26.8-46.1-53.5-92.3-80.3-138.5-.7-1.1-1.2-2.3-2.1-4.2 2.3-.3 4.1-.8 6-.8 28.2 0 56.4 0 84.5-.1 4 0 6.2 1.5 8 5.1 16.3 33.5 32.8 67 49.2 100.5.7 1.5 1.5 2.9 2.6 4.9 1.9-3.8 3.6-6.9 5.1-10.2 15.8-31.9 31.6-63.9 47.3-95.9 1.5-3.1 3.4-4.5 6.8-4.5 28.2.1 56.4 0 84.6.1 1.5.1 3 .6 5.4 1zm-825.2 152V470.8c0-7 .1-7.2 7.3-7.2h68.6c7.1 0 7.3.2 7.3 7.2v218.9c0 7.7 0 7.6 7.6 7.6h111.8c7.2 0 7.2 0 7.2 7 0 19.9-.1 39.8.1 59.7 0 4.3-1.1 5.7-5.5 5.7-66.1-.1-132.2-.1-198.3 0-5.1 0-6-2-6-6.4-.1-48.8-.1-97.7-.1-146.7zm246.7-296.2c14.2-25.4 12-52.3 12-79.1 1.7-.2 3-.5 4.2-.5 9.6 0 19.2 0 28.8-.1 2.9 0 4.1.8 4.1 3.9-.1 24-.1 48 0 72 0 2.3-.3 3.8-3.2 3.8h-45.9zM663.5 5.8c-1.2.5-2.3 1.2-3.5 1.5-69.4 17.7-138.7 35.4-208.1 53-1.2.3-2.5.2-4.2.3V47c-1.9.3-3.4.5-4.8.9-92.9 23.7-185.8 47.4-278.7 71C111.5 132.3 58.8 145.6 6.1 159"/><path class="st2" d="M6.1 424.9c29.6-7.6 59.2-15.2 88.9-22.8 158.3-40.3 316.6-80.7 474.9-121 31.2-8 62.5-15.9 93.7-23.8 1.4-.4 2.9-.6 5-1 0 8.9.2 17.5-.2 26.1-.1 1.3-3 3.1-4.8 3.6-29.1 7.5-58.3 14.9-87.5 22.3-157 40-314 79.9-471 119.9-31.9 8.1-63.8 16.2-95.6 24.4-1.1.3-2.2.8-3.3 1.2-.1-9.7-.1-19.3-.1-28.9zm0 132.3C74.5 539.8 143 522.4 211.4 505c151-38.4 301.9-76.8 452.9-115.3 1.1-.3 2.2-.5 4.4-.9 0 7.1.1 13.8 0 20.4-.1 9.8 1.4 7.6-7.7 9.9-169.8 43.3-339.7 86.5-509.6 129.8-48.4 12.3-96.8 24.7-145.2 37-.1-9.4-.1-19-.1-28.7zm0-177.1c17.8-4.4 35.6-8.7 53.4-13.2 166.2-42.3 332.4-84.6 498.6-127 35.9-9.1 71.8-18.3 107.7-27.4.6-.2 1.3-.2 2.8-.5 0 9.1.1 18-.2 26.8 0 1-2.5 2.3-4 2.7-34 8.7-67.9 17.4-101.9 26C404.3 307.7 246.1 348 87.9 388.3c-27.3 6.9-54.5 13.8-81.8 20.7v-28.9zm0 88.6c26.8-6.7 53.6-13.4 80.3-20.2 166.2-42.3 332.4-84.6 498.6-127 26.8-6.8 53.5-13.6 80.3-20.4.8-.2 1.6-.3 3.3-.6 0 9.2.1 18-.2 26.9 0 1-2.5 2.3-4 2.7-35.4 9-70.9 17.9-106.3 26.9-159.6 40.7-319.2 81.3-478.8 122-24.4 6.2-48.8 12.4-73.1 18.5-.1-9.6-.1-19.2-.1-28.8zm0 43.8c8.8-2 17.7-3.8 26.5-6C242.9 453 453.1 399.4 663.3 345.8c1.6-.4 3.2-.6 5.3-1 0 9 .2 17.6-.2 26.2 0 1.1-2.5 2.7-4.1 3.1-37.5 9.7-75 19.2-112.5 28.8l-447.6 114c-31.2 8-62.5 15.9-93.8 23.8-1.4.4-3 .4-4.4.6.1-9.6.1-19.2.1-28.8zm0-264.8C153 210.3 300 172.9 447.6 135.3v14.6c73.9-18.8 147.1-37.4 221-56.2 0 4.3.4 8.1-.2 11.7-.2 1.4-2.6 3-4.3 3.5-18.7 4.9-37.5 9.6-56.2 14.3-124.4 31.7-248.7 63.3-373.1 95-2.2.6-4.5 1.1-7.4 1.7v-14.4c-9 2.2-17.3 4.2-25.5 6.3-64.4 16.5-128.9 33-193.3 49.4-.8.2-1.7.3-2.5.4v-13.9zm0 398.1c147-37.4 293.9-74.8 441.5-112.4V548c73.9-18.8 147.1-37.4 221-56.2 0 4.3.4 8.1-.2 11.7-.2 1.4-2.6 3-4.3 3.5-18.6 4.9-37.2 9.5-55.8 14.3-124.5 31.7-249 63.4-373.6 95.1-2.2.6-4.4 1-7.4 1.7v-14.4c-9.4 2.4-17.9 4.5-26.5 6.7C136.5 626.8 72.3 643.2 8 659.5c-.7.2-1.3.2-2 .3.1-4.7.1-9.3.1-14zm0-442.9c10.3-2.4 20.6-4.7 30.8-7.3 135.4-34.4 270.8-68.9 406.2-103.4 1.3-.3 2.5-.5 4.5-.9v14.3c73.9-18.8 147.1-37.4 221-56.2 0 4.4.4 8.2-.2 11.9-.2 1.2-2.5 2.7-4.1 3.1-41.3 10.7-82.6 21.2-124 31.7-102.4 26.1-204.8 52.1-307.2 78.2-1.7.4-3.5.8-5.9 1.4v-14.1c-2.9.6-5.1.9-7.3 1.5C149.7 181 79.3 198.9 9 216.8c-1 .2-1.9.7-2.9 1v-14.9zm0 398.1c10.3-2.4 20.6-4.7 30.8-7.3 134.8-34.3 269.5-68.7 404.3-103 1.9-.5 3.8-.8 6.5-1.3v14.3c73.9-18.8 147.1-37.4 220.9-56.2 0 4.3.4 8-.2 11.5-.2 1.4-2.5 3.1-4.2 3.6-24.3 6.4-48.7 12.6-73 18.8-119.4 30.4-238.8 60.8-358.1 91.2-1.7.4-3.5.8-5.8 1.3v-14.3c-8.1 2-15.6 3.8-23.1 5.7-64.9 16.5-129.8 33.1-194.7 49.6-1.1.3-2.2.7-3.3 1.1-.1-5-.1-10-.1-15zm0-264.7C49.5 325.2 92.9 314 136.4 303c102.9-26.2 205.7-52.4 308.6-78.5.6-.2 1.3-.3 2.6-.5v14.4c73.9-18.8 147.1-37.4 221-56.3 0 4.4.3 8.5-.2 12.4-.2 1.2-2.7 2.4-4.4 2.9-22.7 5.9-45.5 11.6-68.3 17.4l-361.5 92.1c-2.1.5-4.1.9-6.9 1.6v-14.4C153.1 313 79.6 331.6 6.1 350.3v-14zm0 441.9c19.1-4.7 38.2-9.4 57.2-14.2 126.6-32.2 253.2-64.5 379.7-96.7 1.3-.3 2.6-.4 4.6-.8v14.2c73.9-18.8 147.1-37.4 221-56.2 0 4.5.4 8.2-.2 11.7-.2 1.4-2.6 3-4.3 3.5-27.7 7.2-55.4 14.2-83.1 21.2-116.2 29.6-232.3 59.2-348.5 88.8-1.6.4-3.2.6-5.2 1.1v-13.9c-2.2.4-3.9.7-5.6 1.1-70 17.8-140.1 35.6-210.1 53.4-1.8.4-3.6.6-5.4.9-.1-4.8-.1-9.4-.1-14.1zm0-43.8c42-10.7 83.9-21.5 125.9-32.2 104.3-26.6 208.6-53.1 312.9-79.7.6-.2 1.3-.3 2.6-.5v14.4c73.9-18.8 147.1-37.4 221-56.3 0 4.4.3 8.5-.2 12.4-.2 1.2-2.8 2.4-4.4 2.9-22.7 5.9-45.5 11.6-68.3 17.4l-361.5 92.1c-2.1.5-4.1.9-6.9 1.6v-14.4C153.1 711 79.6 729.7 6.1 748.4v-14zm0-442.9c12.8-3.1 25.7-6.1 38.5-9.4 132.6-33.7 265.1-67.4 397.6-101.1 1.6-.4 3.2-.7 5.4-1.2v14.3c73.9-18.8 147-37.4 221-56.2 0 4.4.4 8.2-.2 11.8-.2 1.3-2.4 2.8-4 3.2-32.3 8.4-64.7 16.6-97.1 24.9-111.5 28.4-223.1 56.8-334.6 85.2-1.6.4-3.2.7-5.4 1.1v-14.2c-9.5 2.4-18.3 4.5-27 6.7C136.5 272.8 72.7 289.1 9 305.3c-1 .2-1.9.7-2.8 1.1-.1-5-.1-10-.1-14.9zm0 398.1c12.8-3.1 25.7-6.1 38.5-9.4 132.5-33.7 265.1-67.4 397.6-101.1 1.6-.4 3.2-.7 5.4-1.2v14.3c73.9-18.8 147-37.4 221-56.2 0 4.4.4 8.2-.2 11.8-.2 1.3-2.7 2.9-4.5 3.3-33.6 8.7-67.3 17.3-100.9 25.8-109.9 28-219.9 56-329.8 83.9-1.7.4-3.5.8-5.9 1.4v-14.3c-9.5 2.4-18.3 4.5-27 6.7C136.5 671 72.7 687.2 8.9 703.5c-1 .2-1.9.7-2.8 1.1v-15zm0-530.5c52.7-13.4 105.4-26.7 158.1-40.1C257.1 95.3 350 71.6 442.9 48c1.4-.4 2.8-.5 4.8-.9v13.6c1.7-.1 3 0 4.2-.3C521.3 42.7 590.6 25 660 7.3c1.2-.3 2.4-1 3.5-1.5h5c.8 13.3.8 13.3-11.4 16.4-141.6 36-283.2 72.1-424.8 108.1-1.4.4-2.8.6-5 1.1v-14.3c-11.6 2.9-22.5 5.6-33.3 8.4-61.5 15.7-123 31.4-184.5 47-1.1.3-2.3.4-3.4.5v-13.9z"/></svg>