<?xml version="1.0" encoding="utf-8"?>
<!-- Generator: Adobe Illustrator 21.0.1, SVG Export Plug-In . SVG Version: 6.00 Build 0)  -->
<svg version="1.1" id="Слой_1" xmlns="http://www.w3.org/2000/svg" xmlns:xlink="http://www.w3.org/1999/xlink" x="0px" y="0px"
	 viewBox="0 0 378 499.3" style="enable-background:new 0 0 378 499.3;" xml:space="preserve">
<style type="text/css">
	.st0{display:none;}
	.st1{fill:#1A85A3;}
	.st2{fill:#FFFFFF;}
	.st3{fill:#ED1C24;}
</style>
<g id="Grid" class="st0">
</g>
<g id="Layer_1">
</g>
<g id="Desktop">
</g>
<g id="Guides">
</g>
<g id="Page_1">
	<g id="Layer_1_1_">
		<g>
			<polygon class="st1" points="80.2,238.5 296.2,238.5 296.2,184.9 170.3,184.9 170.3,215.6 80.2,238.5 			"/>
			<path class="st2" d="M191.2,190.9v30.9H208v9.4h-27.6v-40.3H191.2L191.2,190.9z M236.2,190.9h10.8v26.8c0,2.6-0.3,4.8-0.8,6.4
				c-0.5,1.6-1.4,3.1-2.6,4.1c-1.3,1.1-3,1.9-5.3,2.4c-2.3,0.5-5.1,0.8-8.8,0.8c-3.8,0-6.6-0.3-9-0.8c-2.3-0.5-4-1.4-5.3-2.4
				c-1.3-1.1-2-2.5-2.5-4.1s-0.6-3.8-0.6-6.4v-26.8h10.8v26.2c0,1.4,0.3,2.5,0.8,3.3s1.1,1.3,2.1,1.5c0.9,0.3,2.3,0.4,3.9,0.4
				c1.6,0,3-0.1,3.9-0.4c0.9-0.3,1.6-0.8,2-1.4c0.5-0.8,0.6-1.9,0.6-3.3V190.9L236.2,190.9z M289.7,190.9l-11.1,19.5l12,20.8H278
				l-8-15.5l-7.9,15.5h-12.8l12-20.8l-11.3-19.5h12.5l7.3,14.8l7.3-14.8H289.7L289.7,190.9z"/>
			<polygon class="st3" points="80.2,179.7 168,157.4 168,161.3 80.2,183.5 			"/>
			<polygon class="st3" points="80.2,185.6 168,163.3 168,167.1 80.2,189.4 			"/>
			<polygon class="st3" points="80.2,191.4 168,169.1 168,172.9 80.2,195.3 			"/>
			<polygon class="st3" points="80.2,197.3 168,174.9 168,178.8 80.2,201.2 			"/>
			<polygon class="st3" points="80.2,203.1 168,180.8 168,184.7 80.2,207 			"/>
			<path class="st3" d="M185.1,161.4l0.5,14.8h-5.1v-19.3h8.1l3.6,12.1h0.1l3.5-12.1h8.4v19.3h-5.1l0.5-14.8h-0.1l-4.9,14.8h-4.5
				l-4.9-14.8H185.1L185.1,161.4z M208,171.8c0.5-0.6,0.9-1.3,1.1-2c0.3-0.8,0.5-1.6,0.6-2.5c0.1-1,0.3-2.1,0.3-3.5V157h14.9v14.9
				h1.6v8.9h-4.9v-4.5h-10.1v4.5h-4.9v-8.9h1.4V171.8z M214.8,161.4v2.6c0,1.3,0,2.4-0.1,3.3c-0.1,0.9-0.3,1.8-0.5,2.5
				c-0.3,0.8-0.5,1.4-0.9,2.1h6.4v-10.5H214.8L214.8,161.4z M233.7,171.8h6.8V157h5.1v14.8h1.6v8.9h-4.9v-4.4h-13.8V157h5.1V171.8
				L233.7,171.8z"/>
			<polygon class="st3" points="138.7,137.5 168,130.1 168,131.9 138.7,139.5 138.7,139.5 109.4,146.8 109.4,145 109.4,145 
				80.2,152.4 80.2,150.5 109.4,143 109.4,143 109.4,143 138.7,135.6 			"/>
			<polygon class="st3" points="138.7,143.3 168,136 168,137.8 138.7,145.2 138.7,145.2 109.4,152.7 109.4,150.7 109.4,150.7 
				80.2,158.2 80.2,156.4 109.4,148.9 109.4,148.9 109.4,148.9 138.7,141.5 			"/>
			<polygon class="st3" points="138.7,149.2 168,141.7 168,143.7 138.7,151.1 138.7,151.1 109.4,158.6 109.4,156.6 109.4,156.6 
				80.2,164.1 80.2,162.1 109.4,154.7 109.4,154.7 109.4,154.7 138.7,147.2 			"/>
			<polygon class="st3" points="138.7,155.1 168,147.6 168,149.6 138.7,157 138.7,157 109.4,164.4 109.4,162.5 109.4,162.5 
				80.2,169.9 80.2,168 109.4,160.6 109.4,160.6 109.4,160.6 138.7,153.1 			"/>
			<polygon class="st3" points="138.7,160.9 168,153.5 168,155.4 138.7,162.9 138.7,162.9 109.4,170.3 109.4,168.4 109.4,168.4 
				80.2,175.8 80.2,173.9 109.4,166.4 109.4,166.4 109.4,166.4 138.7,159 			"/>
			<polygon class="st3" points="138.7,196.1 168,188.6 168,190.6 138.7,198 138.7,198 109.4,205.5 109.4,203.5 109.4,203.5 
				80.2,211 80.2,209 109.4,201.6 109.4,201.6 109.4,201.6 138.7,194.1 			"/>
			<polygon class="st3" points="138.7,201.8 168,194.4 168,196.3 138.7,203.8 109.4,211.2 109.4,209.4 109.4,209.4 80.2,216.7 
				80.2,214.9 109.4,207.3 109.4,207.3 109.4,207.3 138.7,200 			"/>
			<polygon class="st3" points="138.7,207.7 168,200.3 168,202.2 138.7,209.7 109.4,217.1 109.4,215.2 109.4,215.2 80.2,222.6 
				80.2,220.7 109.4,213.2 109.4,213.2 109.4,213.2 138.7,205.8 			"/>
			<polygon class="st3" points="138.7,213.6 168,206.2 168,208.1 138.7,215.5 138.7,215.5 109.4,223 109.4,221 109.4,221 
				80.2,228.5 80.2,226.5 109.4,219.1 109.4,219.1 109.4,219.1 138.7,211.7 			"/>
			<polygon class="st3" points="138.7,219.5 168,212 168,214 138.7,221.4 138.7,221.4 109.4,228.9 109.4,226.9 109.4,226.9 
				80.2,234.4 80.2,232.4 109.4,225 109.4,225 109.4,225 138.7,217.5 			"/>
		</g>
		<g>
			<path class="st1" d="M187.6,12C87.1,12,5.6,93.5,5.6,194c0,40.9,13.5,78.7,36.3,109.1l145.6,194.2l145.6-194.2
				c22.8-30.4,36.3-68.1,36.3-109.1C369.6,93.5,288.1,12,187.6,12z M187.6,315.3c-67,0-121.3-54.3-121.3-121.3
				S120.6,72.7,187.6,72.7S308.9,127,308.9,194C308.9,261,254.6,315.3,187.6,315.3z"/>
		</g>
	</g>
</g>
</svg>
