<svg xmlns="http://www.w3.org/2000/svg" viewBox="0 0 308.004 308.004" width="512" height="512"><path d="M244.63 29.53h-24.36V2.595a2.593 2.593 0 0 0-3.761-2.316C204.231 6.48 180.844 10.67 154.002 10.67S103.774 6.48 91.495.279a2.593 2.593 0 0 0-3.76 2.316V29.53H63.374c-5.58 0-10.103 4.523-10.103 10.103v13.446c0 5.58 4.523 10.103 10.103 10.103h24.361v18.071c0 3.457 2 6.611 5.127 8.083 16.076 7.567 44.219 9.695 61.14 9.695 18.273 0 45.549-2.389 61.129-9.696a8.936 8.936 0 0 0 5.139-8.089V63.181h24.361c5.58 0 10.103-4.523 10.103-10.103V39.633c-.001-5.58-4.524-10.103-10.104-10.103zM116.047 70.479c0 4.143-3.357 7.5-7.5 7.5a7.499 7.499 0 0 1-7.5-7.5V33.715c0-4.143 3.357-7.5 7.5-7.5s7.5 3.357 7.5 7.5v36.764zm128.583 63.316h-24.36V106.86a2.593 2.593 0 0 0-3.761-2.316c-12.278 6.201-35.665 10.392-62.507 10.392s-50.229-4.19-62.507-10.392a2.593 2.593 0 0 0-3.76 2.316v26.935H63.374c-5.58 0-10.103 4.523-10.103 10.103v13.446c0 5.58 4.523 10.103 10.103 10.103h24.361v18.071c0 3.457 2 6.611 5.127 8.083 16.076 7.567 44.219 9.695 61.14 9.695 18.273 0 45.549-2.389 61.129-9.696a8.934 8.934 0 0 0 5.139-8.088v-18.065h24.361c5.58 0 10.103-4.523 10.103-10.103v-13.446c-.001-5.579-4.524-10.103-10.104-10.103zm-128.583 40.834c0 4.143-3.357 7.5-7.5 7.5a7.499 7.499 0 0 1-7.5-7.5v-36.765c0-4.143 3.357-7.5 7.5-7.5s7.5 3.357 7.5 7.5v36.765zm128.583 63.874h-24.36v-26.935a2.593 2.593 0 0 0-3.761-2.316c-12.278 6.201-35.665 10.392-62.507 10.392s-50.229-4.19-62.507-10.392a2.593 2.593 0 0 0-3.76 2.316v26.935H63.374c-5.58 0-10.103 4.523-10.103 10.103v13.446c0 5.58 4.523 10.103 10.103 10.103h24.361v18.071c0 3.457 2 6.611 5.127 8.083 16.076 7.567 44.219 9.695 61.14 9.695 18.273 0 45.549-2.39 61.129-9.696a8.936 8.936 0 0 0 5.139-8.089v-18.065h24.361c5.58 0 10.103-4.523 10.103-10.103v-13.446c-.001-5.579-4.524-10.102-10.104-10.102zm-128.583 43.834c0 4.143-3.357 7.5-7.5 7.5a7.499 7.499 0 0 1-7.5-7.5v-36.765c0-4.143 3.357-7.5 7.5-7.5s7.5 3.357 7.5 7.5v36.765z" fill="#FFF"/></svg>