<?xml version="1.0" encoding="iso-8859-1"?>
<!-- Generator: Adobe Illustrator 19.0.0, SVG Export Plug-In . SVG Version: 6.00 Build 0)  -->
<svg xmlns="http://www.w3.org/2000/svg" xmlns:xlink="http://www.w3.org/1999/xlink" version="1.1" id="Capa_1" x="0px" y="0px" viewBox="0 0 511.926 511.926" style="enable-background:new 0 0 511.926 511.926;" xml:space="preserve" width="512px" height="512px">
<g>
	<g>
		<path d="M498.738,79.653l-66.475-66.475c-20.131-18.566-51.483-17.371-70.142,2.675l-42.526,42.52    c-7.9,7.675-9.98,19.555-5.158,29.458L87.853,314.421c-3.691-1.931-7.829-2.846-11.99-2.652    c-6.597,0.329-12.832,3.118-17.475,7.817l-42.525,42.521c-20.037,18.661-21.233,50.005-2.675,70.138l66.475,66.475    c8.671,8.578,20.412,13.332,32.608,13.204c14.121-0.112,27.62-5.823,37.533-15.879l42.525-42.521    c8.06-7.816,10.052-19.988,4.903-29.965l226.336-226.331c3.462,1.911,7.349,2.919,11.304,2.93c0.4,0,0.792-0.009,1.192-0.029    c6.597-0.329,12.832-3.118,17.475-7.817l42.525-42.521C516.101,131.13,517.296,99.786,498.738,79.653z M325.632,100.772    l4.775,4.775c-0.22,4.283,0.637,8.553,2.494,12.419L117.936,332.934c-3.816-1.735-7.99-2.541-12.178-2.351l-4.97-4.965    L325.632,100.772z M418.076,117.984c-0.264-6.464-2.949-12.593-7.521-17.169c-4.513-4.379-10.494-6.921-16.778-7.131    c-0.264-6.465-2.949-12.595-7.521-17.173c-2.082-2.037-4.5-3.7-7.147-4.916l13.305-13.305c1.665-1.717,3.88-2.795,6.258-3.046    c1.534-0.184,3.073,0.293,4.233,1.313l52.075,52.067c2.186,3.43,1.435,7.956-1.742,10.496l-13.297,13.3    c-1.268-2.706-2.988-5.177-5.087-7.305C430.344,120.734,424.361,118.191,418.076,117.984z M425.447,143.38    c0,2.263-0.899,4.432-2.5,6.031l-12.308,12.312c-1.641,1.605-3.855,2.491-6.15,2.461c-2.296-0.03-4.485-0.974-6.083-2.623    c-3.325-3.335-3.325-8.732,0-12.067l12.325-12.317c1.594-1.604,3.764-2.503,6.025-2.496c2.341,0.01,4.576,0.973,6.192,2.667    C424.547,138.948,425.447,141.118,425.447,143.38z M386.43,112.878c1.594-1.604,3.764-2.503,6.025-2.496    c2.339,0.011,4.573,0.97,6.192,2.658c3.332,3.333,3.335,8.734,0.008,12.071l-12.317,12.308v0.004    c-1.637,1.615-3.852,2.507-6.151,2.475s-4.49-0.983-6.082-2.642c-1.6-1.597-2.499-3.765-2.5-6.025    c-0.001-2.26,0.896-4.429,2.494-6.028l0.006-0.005v-0.004L386.43,112.878z M166.605,381.457c-3.046-1.467-6.354-2.313-9.731-2.489    c-0.169-3.384-1.019-6.7-2.5-9.747l214.867-214.863c3.054,1.473,6.372,2.322,9.758,2.496c0.185,3.371,1.034,6.673,2.498,9.715    L166.605,381.457z M93.493,393.775c0.314,6.376,2.985,12.409,7.495,16.928c4.489,4.461,10.481,7.087,16.804,7.364    c0.312,6.381,2.984,12.418,7.496,16.941c2.081,2.039,4.499,3.702,7.147,4.918l-13.297,13.299c-1.667,1.72-3.885,2.799-6.267,3.05    c-1.534,0.186-3.074-0.292-4.233-1.313l-52.067-52.07c-1.022-1.159-1.501-2.699-1.317-4.233c0.255-2.378,1.334-4.592,3.05-6.258    l13.297-13.298c1.268,2.704,2.988,5.172,5.086,7.298C81.173,390.869,87.167,393.501,93.493,393.775z M86.096,368.138    c0-2.263,0.899-4.432,2.5-6.031l12.325-12.317c1.594-1.604,3.764-2.503,6.025-2.496c2.341,0.01,4.576,0.973,6.192,2.667    c1.601,1.598,2.5,3.767,2.5,6.029c0,2.262-0.899,4.431-2.5,6.029v0.004l-12.308,12.313c-1.641,1.608-3.855,2.494-6.151,2.463    c-2.297-0.031-4.486-0.978-6.082-2.63C86.996,372.571,86.096,370.401,86.096,368.138z M125.13,398.636    c-1.637,1.614-3.852,2.505-6.151,2.474s-4.489-0.98-6.083-2.637c-3.325-3.337-3.325-8.734,0-12.071l12.308-12.308    c1.581-1.59,3.732-2.482,5.975-2.479c2.354,0.012,4.606,0.961,6.258,2.637c1.601,1.6,2.5,3.77,2.5,6.033s-0.899,4.433-2.5,6.033    v0.004L125.13,398.636z M137.196,410.703l12.308-12.308c1.581-1.59,3.732-2.482,5.975-2.479c2.354,0.012,4.606,0.961,6.258,2.638    c3.325,3.337,3.325,8.734,0,12.071l-12.221,12.221l-0.013,0.009l-0.087,0.088c-3.391,3.306-8.81,3.27-12.156-0.081    C133.914,419.508,133.886,414.089,137.196,410.703z M374.355,100.815l-12.317,12.308c-3.39,3.302-8.804,3.268-12.151-0.078    c-3.347-3.346-3.384-8.76-0.082-12.151l12.317-12.308c1.582-1.589,3.733-2.48,5.975-2.475c2.35,0.009,4.6,0.955,6.25,2.629    C377.678,92.075,377.682,97.476,374.355,100.815z M354.668,132.55c0.169,3.384,1.02,6.698,2.502,9.745L142.305,357.156    c-3.046-1.467-6.354-2.313-9.731-2.489c-0.169-3.382-1.018-6.695-2.498-9.741l214.865-214.868    C347.986,131.525,351.292,132.373,354.668,132.55z M180.263,441.457l-42.525,42.521c-12.007,13.359-32.534,14.553-46.008,2.675    l-66.475-66.475c-11.878-13.473-10.685-33.999,2.675-46.005l42.525-42.521c1.638-1.685,3.846-2.697,6.192-2.838    c1.831-0.135,3.634,0.508,4.966,1.771l7.19,7.185L76.53,350.036l-0.019,0.023l-30.272,30.268c-4.612,4.537-7.45,10.574-8,17.021    c-0.588,6.505,1.702,12.941,6.267,17.613l52.067,52.067c4.201,4.118,9.867,6.396,15.75,6.333c0.617,0,1.242-0.025,1.858-0.071    c6.446-0.552,12.484-3.387,17.025-7.996l30.247-30.255l0.045-0.037l12.269-12.273l7.565,7.565    C184.017,433.702,183.547,438.62,180.263,441.457z M185.913,410.745l-4.772-4.772c0.222-4.285-0.634-8.558-2.492-12.426    l214.879-214.875c3.447,1.7,7.235,2.595,11.078,2.618c0.478,0,0.935-0.111,1.409-0.138l4.748,4.747L185.913,410.745z     M483.996,137.724l-42.525,42.521c-1.638,1.685-3.846,2.697-6.192,2.838c-1.83,0.134-3.632-0.507-4.966-1.766l-1.449-1.448    l-0.001-0.002l-0.002-0.001l-6.116-6.115l12.18-12.18l0.013-0.009l30.367-30.375c9.994-9.105,10.771-24.567,1.742-34.629    L414.971,44.49c-4.672-4.56-11.106-6.848-17.608-6.263c-6.444,0.552-12.479,3.388-17.017,7.996l-30.292,30.292l-12.277,12.269    l-7.181-7.181c-2.687-3.407-2.217-8.326,1.067-11.163l0,0l42.525-42.521c12.005-13.363,32.536-14.557,46.008-2.675l66.475,66.475    C498.549,105.192,497.355,125.719,483.996,137.724z" fill="#ffffff"/>
	</g>
</g>
<g>
</g>
<g>
</g>
<g>
</g>
<g>
</g>
<g>
</g>
<g>
</g>
<g>
</g>
<g>
</g>
<g>
</g>
<g>
</g>
<g>
</g>
<g>
</g>
<g>
</g>
<g>
</g>
<g>
</g>
</svg>
