<svg xmlns="http://www.w3.org/2000/svg" width="512" height="512" viewBox="0 0 31.923 31.922"><g fill="#006a86"><path d="M6.343 13.808h4.093c.365 0 .704-.192.899-.5l.308-.491.929 4.517c.102.495.538.783 1.044.783h.012c.51 0 .946-.306 1.036-.81l1.093-5.979.983 5.652c.082.474.471.83.949.875.476.06.929-.239 1.097-.689l1.269-3.358h6.534c.588 0 1.065-.464 1.065-1.054 0-.588-.478-1.051-1.065-1.051h-7.271c-.442 0-.84.284-.996.699l-.149.403-1.345-7.715c-.088-.51-.529-.831-1.046-.831h-.004c-.515 0-.956.315-1.048.825l-1.177 6.46-.348-1.708a1.064 1.064 0 0 0-.853-.834 1.077 1.077 0 0 0-1.092.478l-1.409 2.223H6.343c-.589 0-1.066.463-1.066 1.051 0 .59.477 1.054 1.066 1.054z"/><path d="M29.182 22.719h1.225c.89 0 1.517-.742 1.517-1.637V1.758c0-.89-.627-1.562-1.517-1.562H1.415C.527.196 0 .869 0 1.758v19.325c0 .895.527 1.637 1.415 1.637h1.327v.831h-.898c-.911 0-1.649.738-1.649 1.649v5.237a1.29 1.29 0 0 0 1.29 1.291h28.951c.713 0 1.291-.578 1.291-1.291v-5.598a1.29 1.29 0 0 0-1.291-1.289H29.18v-.831h.002zM3.035 5.548c0-1.144.928-2.071 2.071-2.071h21.466a2.07 2.07 0 0 1 2.07 2.071v12.065a2.07 2.07 0 0 1-2.07 2.069H5.106a2.07 2.07 0 0 1-2.071-2.069V5.548zm12.877 22.536a.655.655 0 0 1-.655.655H3.789a.655.655 0 0 1-.655-.655v-.794c0-.362.293-.655.655-.655h11.468c.362 0 .656.293.656.655l-.001.794zm6.561 0a.655.655 0 0 1-.654.655h-2.312a.655.655 0 0 1-.654-.655v-.794c0-.362.293-.655.654-.655h2.312c.361 0 .656.293.656.655v.794h-.002zm6.267 0a.655.655 0 0 1-.655.655h-2.362a.655.655 0 0 1-.654-.655v-.794c0-.362.293-.655.654-.655h2.361c.361 0 .656.293.656.655v.794zm-7.802-4.535h-9.921v-.831h9.939v.831h-.018z"/></g></svg>