<?xml version="1.0" encoding="utf-8"?>
<!-- Generator: Adobe Illustrator 21.0.1, SVG Export Plug-In . SVG Version: 6.00 Build 0)  -->
<svg version="1.1" id="Слой_1" xmlns="http://www.w3.org/2000/svg" xmlns:xlink="http://www.w3.org/1999/xlink" x="0px" y="0px"
	 viewBox="0 0 500 500" style="enable-background:new 0 0 500 500;" xml:space="preserve">
<style type="text/css">
	.st0{fill:none;stroke:#4A9FB7;stroke-width:10;stroke-miterlimit:10;}
	.st1{fill:#4A9FB7;}
</style>
<g>
	<circle class="st0" cx="250.1" cy="249.9" r="246.2"/>
</g>
<path class="st1" d="M327.5,156.4H174.7c-30,0-54.3,24.3-54.3,54.3v76.4c0,30,24.3,54.3,54.3,54.3h152.8c30,0,54.3-24.3,54.3-54.3
	v-76.3C381.8,180.7,357.5,156.4,327.5,156.4z M290.8,252.6l-71.5,34.1c-1.9,0.9-4.1-0.5-4.1-2.6v-70.3c0-2.2,2.3-3.5,4.1-2.6
	l71.5,36.2C293,248.6,293,251.6,290.8,252.6z"/>
</svg>
